DataType=double
version=3
OpenSimVersion=4.5-2023-11-26-efcdfd3eb
endheader
time	EMG01_right_gast_med	EMG02_right_glut_max	EMG03_left_gast_med	EMG04_left_glut_max	EMG05_right_glut_med	EMG06_right_bic_fem	EMG07_right_rect_fem	EMG08_right_vast_lat	EMG09_right_vast_med	EMG10_right_tens_fasc_lat	EMG11_left_glut_med	EMG12_left_bic_fem	EMG13_left_rect_fem	EMG14_left_vast_lat	EMG15_left_vast_med	EMG16_left_tens_fasc_lat
1.26	0.04716819744794646	0.1489697640174022	0.2991294938709599	0.0250000859481357	0.06368308628739311	0.2259979695809318	0.04345420166158712	0.04620703528591285	0.04414296825555341	0.1262969510320713	0.06246946940422043	0.03092592126114695	0.05925217256709166	0.02444137199589422	0.04048207045309477	0.01207266956350175
1.27	0.04904579228797618	0.1524014791441881	0.290485045568576	0.02674201399657984	0.06924072368629269	0.2341511912898665	0.04549692593480507	0.0481438061122385	0.04779022766717644	0.1356917737641985	0.06074367053464892	0.03116167503790502	0.059828358959486	0.02556961165299653	0.0418285942930274	0.01014020968152596
1.28	0.05100406018259198	0.1564903957223045	0.2807778317725508	0.02886981267961601	0.07498816039266218	0.2416386846997459	0.04749339379290642	0.04996531644044824	0.05144554386977696	0.1452963642812312	0.05909100888354467	0.03121094133503135	0.06031050528365824	0.02670106592712642	0.04316143110106465	0.009137795896240216
1.29	0.0530699768110457	0.1611584939196205	0.2700902715213238	0.03137522193012844	0.08084239050099484	0.248374516897228	0.04941581967019311	0.05164892275591385	0.0550720294492144	0.1550126152952265	0.05751225782177499	0.03107473882514376	0.06068322585824864	0.02781895047507097	0.04444386750201908	0.009082799629699611
1.3	0.05527105679472508	0.1663180009543403	0.258516681657749	0.03424511972798085	0.0867204299869342	0.2542788339349892	0.05123784776158337	0.05317338082551953	0.05863246971397528	0.1647382818686798	0.05600787641873974	0.03075728035268466	0.06093311415393762	0.02890775514794317	0.04563839676450585	0.009985235736409734
1.31	0.05763531822164619	0.1718726359993187	0.246161409309237	0.03746150545919009	0.09254046097406884	0.2592796153971155	0.05293492498304278	0.05451922683234335	0.06208982832040804	0.1743682822851175	0.05457791159956	0.03026577517470427	0.06104868268728119	0.0299532598611489	0.0467070832267181	0.01184758297247213
1.32	0.06019128172749544	0.1777189961191204	0.2331368267863402	0.04100156073817006	0.09822296169380898	0.2633143872198638	0.05448465317681108	0.05566913997381753	0.06540776081768515	0.1837960878174409	0.05322193048258429	0.02961019938095147	0.06102029572064475	0.03094253695223905	0.04761196851217048	0.01466463916090506
1.33	0.06296799371293575	0.1837480704677363	0.2195612442251741	0.04483779111235153	0.1036918019492935	0.266331832576488	0.05586711773232029	0.05660827702963143	0.06855112613082617	0.1929151875483289	0.05193898392803582	0.02880304339868205	0.06084009886644875	0.03186394485976635	0.04831552002538551	0.01842341442369885
1.34	0.06599506093461598	0.1898468668934201	0.205556794163664	0.04893825079279678	0.1088752825558465	0.2682932353234317	0.05706518978134618	0.05732456874144876	0.07148648572262932	0.2016206116093104	0.05072760037314868	0.0278590443817074	0.06050195051265863	0.03270711815424671	0.04878112177773521	0.02310306631894775
1.35	0.06930268180412233	0.1959001314570467	0.1912473394198698	0.05326685119264684	0.1137070960689171	0.2691736883527162	0.05806479873821323	0.05780896709977763	0.07418258058736323	0.2098104926011309	0.04958580765547928	0.02679490996947475	0.06000136069961033	0.03346295897941651	0.04897360688277449	0.02867488119059426
1.36	0.07292165841162182	0.2017921372859043	0.1767564510535623	0.05778375262689308	0.1181271850925278	0.2689630018410062	0.05885517157125734	0.05805563225273537	0.07661077707167127	0.2173876404758801	0.04851117996392889	0.02562903863502861	0.05933544302398702	0.03412363463912338	0.04885983003564742	0.03510230651684159
1.37	0.0768833729150853	0.2074085143683045	0.1622054968993657	0.06244583707613233	0.1220824749018136	0.2676662568269763	0.05942903501056492	0.0580620485743154	0.07874547339554304	0.2242611001511222	0.04750090726303744	0.02438124074588803	0.05850288415658782	0.03468258528403271	0.04840927702108159	0.04234103945959908
